<svg width="29" height="29" viewBox="0 0 29 29" fill="none" xmlns="http://www.w3.org/2000/svg">
<path d="M25.0854 16.1544C25.1438 15.7068 25.1875 15.2593 25.1875 14.7837C25.1875 14.3082 25.1438 13.8606 25.0854 13.4131L28.1625 11.1053C28.4396 10.8955 28.5125 10.5179 28.3375 10.2102L25.4208 5.3709C25.2896 5.14712 25.0417 5.02124 24.7792 5.02124C24.6917 5.02124 24.6042 5.03523 24.5313 5.0632L20.9 6.46184C20.1417 5.90238 19.325 5.44083 18.4354 5.09117L17.8813 1.38479C17.8375 1.04912 17.5313 0.797363 17.1667 0.797363H11.3333C10.9688 0.797363 10.6625 1.04912 10.6188 1.38479L10.0646 5.09117C9.17501 5.44083 8.35834 5.91637 7.60001 6.46184L3.96876 5.0632C3.88126 5.03523 3.79376 5.02124 3.70626 5.02124C3.45834 5.02124 3.21043 5.14712 3.07918 5.3709L0.16251 10.2102C-0.0270734 10.5179 0.0604268 10.8955 0.33751 11.1053L3.41459 13.4131C3.35626 13.8606 3.31251 14.3222 3.31251 14.7837C3.31251 15.2453 3.35626 15.7068 3.41459 16.1544L0.33751 18.4621C0.0604268 18.6719 -0.0124901 19.0496 0.16251 19.3573L3.07918 24.1965C3.21043 24.4203 3.45834 24.5462 3.72084 24.5462C3.80834 24.5462 3.89584 24.5322 3.96876 24.5042L7.60001 23.1056C8.35834 23.6651 9.17501 24.1266 10.0646 24.4763L10.6188 28.1826C10.6625 28.5183 10.9688 28.7701 11.3333 28.7701H17.1667C17.5313 28.7701 17.8375 28.5183 17.8813 28.1826L18.4354 24.4763C19.325 24.1266 20.1417 23.6511 20.9 23.1056L24.5313 24.5042C24.6188 24.5322 24.7063 24.5462 24.7938 24.5462C25.0417 24.5462 25.2896 24.4203 25.4208 24.1965L28.3375 19.3573C28.5125 19.0496 28.4396 18.6719 28.1625 18.4621L25.0854 16.1544ZM22.1979 13.7627C22.2563 14.1963 22.2708 14.49 22.2708 14.7837C22.2708 15.0774 22.2417 15.3851 22.1979 15.8047L21.9938 17.3852L23.2917 18.3642L24.8667 19.5391L23.8458 21.2314L21.9938 20.5181L20.4771 19.9307L19.1646 20.8818C18.5375 21.3293 17.9396 21.665 17.3417 21.9028L15.7958 22.5042L15.5625 24.0846L15.2708 25.9728H13.2292L12.9521 24.0846L12.7188 22.5042L11.1729 21.9028C10.5458 21.651 9.96251 21.3293 9.37918 20.9097L8.05209 19.9307L6.50626 20.5321L4.65418 21.2454L3.63334 19.5531L5.20834 18.3782L6.50626 17.3992L6.30209 15.8187C6.25834 15.3851 6.22918 15.0634 6.22918 14.7837C6.22918 14.504 6.25834 14.1823 6.30209 13.7627L6.50626 12.1823L5.20834 11.2032L3.63334 10.0284L4.65418 8.33601L6.50626 9.04931L8.02293 9.63674L9.33543 8.68567C9.96251 8.2381 10.5604 7.90243 11.1583 7.66466L12.7042 7.06325L12.9375 5.48279L13.2292 3.59463H15.2563L15.5333 5.48279L15.7667 7.06325L17.3125 7.66466C17.9396 7.91642 18.5229 8.2381 19.1063 8.65769L20.4333 9.63674L21.9792 9.03533L23.8313 8.32202L24.8521 10.0144L23.2917 11.2032L21.9938 12.1823L22.1979 13.7627ZM14.25 9.18918C11.0271 9.18918 8.41668 11.6927 8.41668 14.7837C8.41668 17.8747 11.0271 20.3783 14.25 20.3783C17.4729 20.3783 20.0833 17.8747 20.0833 14.7837C20.0833 11.6927 17.4729 9.18918 14.25 9.18918ZM14.25 17.581C12.6458 17.581 11.3333 16.3222 11.3333 14.7837C11.3333 13.2452 12.6458 11.9864 14.25 11.9864C15.8542 11.9864 17.1667 13.2452 17.1667 14.7837C17.1667 16.3222 15.8542 17.581 14.25 17.581Z" fill="#858585"/>
</svg>
