<svg width="31" height="29" viewBox="0 0 31 29" fill="none" xmlns="http://www.w3.org/2000/svg">
<path d="M14.0417 23.1755H16.9584V20.3783H14.0417V23.1755ZM15.5 0.797363C7.45002 0.797363 0.916687 7.06325 0.916687 14.7837C0.916687 22.5042 7.45002 28.7701 15.5 28.7701C23.55 28.7701 30.0834 22.5042 30.0834 14.7837C30.0834 7.06325 23.55 0.797363 15.5 0.797363ZM15.5 25.9728C9.06877 25.9728 3.83335 20.9517 3.83335 14.7837C3.83335 8.61574 9.06877 3.59463 15.5 3.59463C21.9313 3.59463 27.1667 8.61574 27.1667 14.7837C27.1667 20.9517 21.9313 25.9728 15.5 25.9728ZM15.5 6.3919C12.2771 6.3919 9.66669 8.89546 9.66669 11.9864H12.5834C12.5834 10.4479 13.8959 9.18918 15.5 9.18918C17.1042 9.18918 18.4167 10.4479 18.4167 11.9864C18.4167 14.7837 14.0417 14.4341 14.0417 18.9796H16.9584C16.9584 15.8327 21.3334 15.483 21.3334 11.9864C21.3334 8.89546 18.7229 6.3919 15.5 6.3919Z" fill="#858585"/>
</svg>
