<svg width="36" height="34" viewBox="0 0 36 34" fill="none" xmlns="http://www.w3.org/2000/svg">
<g clip-path="url(#clip0_10_32)">
<path d="M17.75 30.77C19.3541 30.77 20.6666 29.5112 20.6666 27.9727H14.8333C14.8333 29.5112 16.1458 30.77 17.75 30.77ZM26.5 22.3782V15.385C26.5 11.0912 24.1229 7.49668 19.9375 6.54561V5.59454C19.9375 4.43367 18.9604 3.49658 17.75 3.49658C16.5396 3.49658 15.5625 4.43367 15.5625 5.59454V6.54561C11.3916 7.49668 8.99998 11.0772 8.99998 15.385V22.3782L6.08331 25.1754V26.5741H29.4166V25.1754L26.5 22.3782ZM23.5833 23.7768H11.9166V15.385C11.9166 11.9164 14.1187 9.09112 17.75 9.09112C21.3812 9.09112 23.5833 11.9164 23.5833 15.385V23.7768Z" fill="#858585"/>
</g>
<defs>
<clipPath id="clip0_10_32">
<rect width="35" height="33.5672" fill="white" transform="translate(0.25)"/>
</clipPath>
</defs>
</svg>
