<svg width="36" height="34" viewBox="0 0 36 34" fill="none" xmlns="http://www.w3.org/2000/svg">
<g clip-path="url(#clip0_10_35)">
<path d="M26.75 11.1891H25.2916V8.39186C25.2916 4.53162 22.025 1.39868 18 1.39868C13.975 1.39868 10.7083 4.53162 10.7083 8.39186V11.1891H9.24998C7.64581 11.1891 6.33331 12.4479 6.33331 13.9864V27.9728C6.33331 29.5113 7.64581 30.77 9.24998 30.77H26.75C28.3541 30.77 29.6666 29.5113 29.6666 27.9728V13.9864C29.6666 12.4479 28.3541 11.1891 26.75 11.1891ZM13.625 8.39186C13.625 6.07012 15.5791 4.19595 18 4.19595C20.4208 4.19595 22.375 6.07012 22.375 8.39186V11.1891H13.625V8.39186ZM26.75 27.9728H9.24998V13.9864H26.75V27.9728ZM18 23.7768C19.6041 23.7768 20.9166 22.5181 20.9166 20.9796C20.9166 19.4411 19.6041 18.1823 18 18.1823C16.3958 18.1823 15.0833 19.4411 15.0833 20.9796C15.0833 22.5181 16.3958 23.7768 18 23.7768Z" fill="#858585"/>
</g>
<defs>
<clipPath id="clip0_10_35">
<rect width="35" height="33.5672" fill="white" transform="translate(0.5)"/>
</clipPath>
</defs>
</svg>
